<svg width="40" height="41" viewBox="0 0 40 41" fill="none" xmlns="http://www.w3.org/2000/svg">
<path d="M19.8413 15.619H23.8095V9.7619H29.7619V5.85714H23.8095V0H19.8413V5.85714H13.8889V9.7619H19.8413V15.619ZM11.9048 33.1905C9.72222 33.1905 7.95635 34.9476 7.95635 37.0952C7.95635 39.2429 9.72222 41 11.9048 41C14.0873 41 15.873 39.2429 15.873 37.0952C15.873 34.9476 14.0873 33.1905 11.9048 33.1905ZM31.746 33.1905C29.5635 33.1905 27.7976 34.9476 27.7976 37.0952C27.7976 39.2429 29.5635 41 31.746 41C33.9286 41 35.7143 39.2429 35.7143 37.0952C35.7143 34.9476 33.9286 33.1905 31.746 33.1905ZM12.2421 26.8452L12.3016 26.611L14.0873 23.4286H28.869C30.3571 23.4286 31.6667 22.6281 32.3413 21.4176L40 7.73143L36.5476 5.85714H36.5278L34.3452 9.7619L28.869 19.5238H14.9405L14.6825 18.9967L10.2381 9.7619L8.35317 5.85714L6.4881 1.95238H0V5.85714H3.96825L11.1111 20.6757L8.43254 25.459C8.11508 26.0057 7.93651 26.65 7.93651 27.3333C7.93651 29.481 9.72222 31.2381 11.9048 31.2381H35.7143V27.3333H12.7381C12.4802 27.3333 12.2421 27.1186 12.2421 26.8452Z" fill="white"/>
</svg>
